<?xml version="1.0" encoding="UTF-8"?>
<!DOCTYPE svg PUBLIC "-//W3C//DTD SVG 1.1//EN" "http://www.w3.org/Graphics/SVG/1.1/DTD/svg11.dtd">
<!-- Creator: CorelDRAW -->
<svg xmlns="http://www.w3.org/2000/svg" xml:space="preserve" width="700mm" height="1000mm" version="1.1" style="shape-rendering:geometricPrecision; text-rendering:geometricPrecision; image-rendering:optimizeQuality; fill-rule:evenodd; clip-rule:evenodd"
viewBox="0 0 70000 100000"
 xmlns:xlink="http://www.w3.org/1999/xlink"
 xmlns:xodm="http://www.corel.com/coreldraw/odm/2003">
 <defs>
  <style type="text/css">
   <![CDATA[
    .fil1 {fill:#FEFEFE}
    .fil0 {fill:#C45C91}
   ]]>
  </style>
 </defs>
 <g id="Capa_x0020_1">
  <metadata id="CorelCorpID_0Corel-Layer"/>
  <g id="_1679409077888">
   <polygon class="fil0" points="2371.18,-73.21 47230.71,-73.21 47230.71,63307.08 25233.89,53415.52 2371.18,63307.08 "/>
   <g>
    <path class="fil1" d="M32561.6 40804.14l2874.34 0 0 -6962.21c86.96,0 45.53,-14.24 141.31,114.13l627.32 863.13c198.04,291.15 498.18,685.24 715.64,987.67l1164.85 1602.97c31.75,42.94 57.11,79.41 89.93,122.97l1075.16 1479.77c158.91,210.98 373.16,545.99 553.15,724.38 89.25,88.48 225.76,232.84 327.25,311.43 40.12,31.05 76.68,62.8 118.71,94.25 503.28,376.59 1201.25,661.51 1904.09,661.51l787.74 0 0 -11869.87 -2874.26 0 0 6898.33c-68.38,0 -62.97,-14.24 -129.45,-104.77l-430.26 -591.75c-61.9,-82.08 -117.63,-158.61 -174.96,-240.22l-1554.17 -2129.17c-484.62,-641.17 -986.46,-1368.92 -1472,-2019.76 -32.44,-43.4 -60.62,-77.81 -90.84,-122.13 -57.02,-83.9 -117.4,-156.77 -174.51,-240.6l-175.96 -239.23c-273.42,-366.46 -402.93,-549.19 -818.27,-821.25 -285.82,-187.22 -793.45,-389.45 -1260.56,-389.45l-1224.25 0 0 11869.87z"/>
    <path class="fil1" d="M12888.5 30509.84l0 10251.73c0,24.9 17.66,42.57 42.56,42.57l8058.77 0c32.74,0 42.56,-31.15 42.56,-63.89l0 -2267.52c0,-39.74 -27.79,-87.24 -59.85,-99.8 -53.37,-20.95 -2362.76,-6.63 -2441.87,-6.63 -652.9,0 -1305.87,0 -1958.76,0 -162.41,0 -523.31,18.72 -649.4,-10.66l0 -2395.28c111.39,-25.96 1080.12,-10.66 1277.47,-10.66 1224.48,0 2483.37,-10.12 3704.8,0.07 57.26,0.55 127.61,13.79 127.61,-42.63l0 -2118.43c0,-90.38 -79.11,-63.96 -170.32,-63.89 -654.88,0.47 -4903.08,7.85 -4924.03,-4.94 -31.67,-19.34 -15.53,-394.18 -15.53,-452.87 0,-628.09 0,-1256.17 0,-1884.24 111.39,-25.96 1080.12,-10.66 1277.47,-10.66 1224.48,0 2483.37,-10.12 3704.8,0.09 57.26,0.45 127.61,13.7 127.61,-42.65l0 -2352.72c0,-24.89 -17.67,-42.56 -42.56,-42.56l-6589.65 0c-214.87,0 -424.63,78.28 -609.88,156.55 -248.67,105.07 -569.37,418.31 -696.07,655.94 -116.03,217.76 -205.73,474.8 -205.73,763.08z"/>
    <path class="fil1" d="M22725.04 30690.82l0 10113.32 8143.89 0 0 -2437.84 -5109.88 0 0 -2416.6 5099.3 0 0 -2224.88 -5099.3 0 0 -2352.71 5109.88 0 0 -2437.84 -6461.89 0c-314.15,0 -697.2,143.76 -945.95,331.52 -409.55,309.2 -736.05,792.83 -736.05,1425.03z"/>
    <path class="fil1" d="M6660.82 40814.79l3172.43 0 0 -9251.04c0,-395.31 -146.42,-661.87 -396.61,-912.91 -225.6,-226.36 -576.99,-327.78 -871.87,-437.5l-1903.95 -725.53 0 11326.98z"/>
    <path class="fil1" d="M6916.34 26017.37l98.82 124.72c34.34,46.29 63.05,79.19 98.85,124.71 415.87,529.48 868.14,1117.43 1285.38,1631.52l103.09 131.03c32.44,-21.69 47.06,-34.34 79.04,-59.38 30.15,-23.6 49.56,-36.55 78.27,-60.15 350.62,-288.11 760.09,-590.92 1121.68,-879.64 384.74,-307.3 820.94,-634.7 1198.14,-941.62 26.64,-21.7 55.35,-51.7 88.46,-60.53 -12.33,-46.29 -127.61,-104.46 -165.83,-132.26 -59.53,-43.39 -116.25,-84.58 -174.73,-123.27l-1073.65 -746.77c-176.49,-131.12 -443.05,-297.25 -616.04,-427.22 -34.26,-25.74 -59.32,-39.9 -94.34,-65.41 -60.6,-44.08 -116.64,-81.84 -174.9,-123.18l-542.87 -372.63 -1309.37 1980.08z"/>
    <path class="fil1" d="M9673.5 29317.49c-17.5,23.9 -85.27,74.69 -113.75,99.13 -72.64,62.44 -45.75,55.96 -156.84,33.12 -123.58,-25.35 -244.33,-53.38 -360.15,-76.36 -123.8,-24.52 -241.74,-51.93 -360.05,-76.37l-371.8 -75.31c2.13,-1.52 5.72,-5.93 6.77,-3.88l56.66 -28.56c37.68,-13.01 544.62,48.89 596.85,53.45l702.31 74.78zm-3012.68 0l762.46 259.55c261.69,87.26 501.98,170.94 763.9,258.11l761.09 260.87c126.32,42.09 251.95,85.57 380.48,130.5 190.58,66.63 305.85,123.57 472.51,123.57 179.78,0 300.31,-167.2 396.55,-263.44 103.39,-103.39 196.66,-188.45 287.96,-297.63 14.31,-17.14 26.11,-27.26 42.02,-43.02l580.27 -580.19c29.38,-29.38 65.71,-50.32 77.12,-93.19 -54.59,-4.49 -89.08,-10.35 -160.04,-10.27 -68.61,0.07 -95.02,-11.81 -169.87,-11.12l-333.04 -18.28c-54.58,-7.46 -111.46,1.14 -166.81,-3.42 -176.12,-14.62 -521.94,-23.53 -672.78,-40.51l-509.6 -22.69c-71.87,0.68 -96.47,-10.51 -159.13,-11.19 -166.59,-1.83 -348.42,-20.87 -522.02,-20.87 -68.83,0 -833.56,165.83 -923.49,183.73l-857.79 174.74c-53.14,12.41 -23.07,-11.73 -49.79,24.75z"/>
    <path class="fil1" d="M36032.11 42954.54l255.45 0 0 -766.5 536.17 730.72c44.32,57.26 83.38,35.78 251.65,35.78l0 -1160.36c0,-54.82 -105.15,-31.9 -255.53,-31.9l0 766.49c-31.52,-23.14 -110.55,-144.05 -142.91,-187.08l-359.53 -492.16c-77.05,-113.38 -31.6,-87.25 -285.3,-87.25l0 1192.26z"/>
    <polygon class="fil1" points="23491.54,42954.54 24300.61,42954.54 24300.61,42741.66 23757.73,42741.66 23757.73,42454.23 24268.7,42454.23 24268.7,42251.93 23757.73,42251.93 23757.73,41975.16 24300.61,41975.16 24300.61,41762.28 23491.54,41762.28 "/>
    <polygon class="fil1" points="15901.19,42954.54 16710.26,42954.54 16710.26,42741.66 16167.38,42741.66 16167.38,42454.23 16678.34,42454.23 16678.34,42251.93 16167.38,42251.93 16167.38,41975.16 16710.26,41975.16 16710.26,41762.28 15901.19,41762.28 "/>
    <path class="fil1" d="M33221.65 42539.35c0,-424.7 383.21,-319.71 383.21,-74.46 0,87.11 8.6,173.68 -55.36,242.66 -35.86,38.67 -75.53,67.08 -144.81,63.19 -116.11,-6.55 -183.04,-103.17 -183.04,-231.39zm383.21 -340.64l-9.59 -11.66c-26.58,-31.21 -57.88,-67.61 -93.04,-87.94 -257.81,-149.39 -546.69,45.38 -546.69,408.34 0,450.37 380.48,572.42 596.25,383.37 30,-26.43 18.57,-30.23 53.07,-53.38l0 117.1 255.52 0 0 -1192.26 -255.52 0 0 436.43z"/>
    <path class="fil1" d="M38704.16 43092.96l-53.23 0 0 191.65c432.02,0 433.77,-75.61 586.89,-499.02l180.98 -532.29c8.83,-26.66 20.26,-61.3 29.08,-87.94 11.43,-34.35 26.12,-63.21 33.44,-94.41l-266.2 0 -180.98 670.71c-27.79,-20.41 -21.93,-31.75 -33.42,-73.02 -25.51,-91.67 -157.07,-548.05 -158.14,-597.69l-287.51 0 297.1 831.89c42.49,122.97 -12.72,190.12 -148.01,190.12z"/>
    <path class="fil1" d="M19435.59 42784.22c-53.06,0 -159.74,8.98 -159.74,-95.79 0,-64.34 50.71,-92.42 110.32,-102.63 43.1,-7.46 167.51,-14.46 209.09,-14.46 0,71.02 10.66,212.88 -159.67,212.88zm-372.62 -436.43l234.19 0c36.18,-155.26 243.58,-117.71 282.41,-58.86 24.44,36.93 15.69,68.22 15.69,122.66 -68.23,15.92 -253.25,4.8 -379.64,46.22 -399.19,130.73 -120.75,678.09 273.64,475.95 58.33,-29.85 68.45,-64.04 116.66,-96.32l0 117.1 244.78 0 0 -606.75c0,-103.48 -46.22,-165.38 -103.54,-215.79 -169.94,-149.38 -676.81,-113.75 -684.19,215.79z"/>
    <path class="fil1" d="M21447.58 42784.22c-53,0 -159.67,8.98 -159.67,-95.79 0,-64.34 50.71,-92.42 110.26,-102.63 43.09,-7.46 167.5,-14.46 209.07,-14.46 0,71.02 10.66,212.88 -159.66,212.88zm-372.55 -436.43l234.2 0c37.39,-160.66 250.51,-111.4 284.08,-60.54 20.93,31.84 13.93,76.3 13.93,124.34 -116.03,27.11 -471.83,-22.31 -552.47,192.71 -115.88,309.2 289.95,480.59 510.06,286.52 29.93,-26.43 18.66,-30.3 53.07,-53.38l0 117.1 244.87 0 0 -606.75c0,-190.27 -181.22,-298.09 -340.65,-298.09 -126.92,0 -222.63,-1 -333.57,81.62 -59.31,44.16 -111.39,120.53 -113.52,216.47z"/>
    <path class="fil1" d="M40151.95 42784.22c-53,0 -159.67,8.98 -159.67,-95.79 0,-123.34 209.46,-117.09 319.33,-117.09 0,71.02 10.66,212.88 -159.66,212.88zm-372.55 -436.43l234.13 0c27.71,-119.01 107.35,-106.45 191.65,-106.45 110.09,0 106.43,92.9 106.43,149.01 0,69.82 -159.2,-1.14 -371.64,64.87 -407.87,126.69 -126.61,681.75 265.66,478.54 24.67,-12.79 44.23,-25.89 63.57,-42.94 29.93,-26.43 18.66,-30.3 53.07,-53.38l0 117.1 244.87 0 0 -606.75c0,-190.27 -181.29,-298.09 -340.65,-298.09 -119.16,0 -233.37,0.07 -332.96,82.23l-75.3 84.37c-21.02,36.16 -37.69,79.94 -38.83,131.49z"/>
    <path class="fil1" d="M30986.04 42784.22c-94.03,0 -170.33,12.33 -170.33,-106.45 0,-114.28 173.15,-92.35 220.65,-98.75 31.37,-4.19 50.94,-7.68 98.76,-7.68 0,62.96 4.95,114.88 -41.42,160.8 -18.96,18.88 -71.19,52.08 -107.66,52.08zm-383.21 -479.08l0 42.65c322.84,0 187.68,7.91 260.92,-69.14 38.99,-41.04 89.01,-37.31 143.61,-37.31 108.88,0 127.76,62.2 127.76,170.25 -64.18,15 -241.59,4.49 -372.86,42.33 -409.09,117.94 -141.16,689 266.11,479.07 45.15,-23.3 74.77,-58.77 106.75,-95.55l0 117.1 244.87 0 0 -638.74c0,-160.72 -180.69,-266.1 -351.31,-266.1 -150.15,0 -287.58,19.49 -379.25,142.38 -16.9,22.7 -46.6,79.79 -46.6,113.06z"/>
    <path class="fil1" d="M37852.54 42784.22c-52.85,0 -180.99,8.83 -180.99,-95.79 0,-124.79 237.86,-117.09 329.99,-117.09 0,62.88 0.84,110.77 -43.02,159.28 -22.15,24.52 -60.15,53.6 -105.98,53.6zm-361.97 -436.43l180.98 0c48.88,0 6.62,-5.41 53.76,-63.43 54.97,-67.61 210.91,-54.67 251.18,3.28 23.52,33.95 25.05,71.04 25.05,123.95 -101.95,23.83 -369.5,-10.51 -498.03,108.89 -222.02,206.25 51.48,581.01 384.2,416.09 37.99,-18.81 76.97,-54.74 104.23,-87.41l9.6 105.38 244.86 0 0 -638.74c0,-94.25 -58.4,-151.43 -115.27,-193.47 -179.69,-132.47 -606.3,-97.98 -662.64,173.83 -7.24,34.87 -13.78,51.63 22.08,51.63z"/>
    <path class="fil1" d="M25929.39 42411.59l-361.97 0c0,-107.35 86.64,-174.36 182.19,-177.17 98.92,-2.97 179.78,72.18 179.78,177.17zm-617.43 63.89l0 85.19c0,235.81 177.64,415.2 415.19,415.2 127.09,0 229.56,-12.96 331.9,-93.97 34.64,-27.41 165.45,-204.13 83.3,-204.13 -354.52,0 -129.67,11.19 -274.41,87.56 -45.08,23.68 -104.16,31.45 -152.67,20.86 -107.5,-23.45 -158.44,-102.47 -158.44,-214.85l617.42 0c0,-164.39 7.69,-270.22 -115.58,-406.14 -138.42,-152.73 -481.74,-161.18 -632.34,9.44 -61.22,69.37 -114.37,174.21 -114.37,300.84z"/>
    <path class="fil1" d="M34839.76 42411.59l-372.54 0c17.97,-37.46 30.68,-167.58 183.56,-175.73 105.46,-5.63 186.56,65.41 188.98,175.73zm-617.41 42.64c0,171.08 -9.74,273.27 124.87,407.34 168.5,167.9 537.39,158.83 686.01,-54.2 25.51,-36.48 40.74,-70.05 40.74,-129.6 -383.28,0 -148.62,9.67 -297.17,86.04 -127.84,65.79 -309.58,14.78 -309.58,-192.47l617.41 0c0,-162.94 9.3,-273.35 -119.61,-402.03 -251.8,-251.18 -742.67,-95.77 -742.67,284.92z"/>
    <path class="fil1" d="M28952.74 42784.22c-262.54,0 -261.47,-542.88 0,-542.88 259.18,0 258.48,542.88 0,542.88zm-447.09 -329.99c0,149.53 -0.92,282.1 119.31,402.32 163.77,163.62 495.66,158.75 655.48,-0.15 242.73,-241.28 118.62,-806.7 -285.07,-806.7 -143.3,0 -263.44,12.63 -370.26,119.46 -54.75,54.74 -119.46,179.16 -119.46,285.07z"/>
    <path class="fil1" d="M14506.61 42784.22c-220.03,0 -229.7,-328.32 -145.03,-464.46 86.79,-139.64 336.68,-108.19 336.68,187.69 0,142.16 -51.93,276.77 -191.65,276.77zm-447.09 -329.99c0,149.53 -0.9,282.1 119.31,402.32 242.96,242.74 774.95,117.4 774.95,-295.88 0,-157.38 -6.01,-256.43 -117.1,-383.29 -224.38,-256.13 -777.16,-124.94 -777.16,276.85z"/>
    <path class="fil1" d="M7597.63 42198.71l0 -127.76 -255.52 0 0 883.59 255.52 0c0,-119.16 -17.2,-528.55 27.64,-611.02 65.26,-119.99 313.02,-124.87 313.02,78.73l0 532.29 255.52 0 0 -564.19c0,-215.71 -114.75,-340.65 -330.07,-340.65 -141.46,0 -200.4,73.4 -266.11,149.01z"/>
    <path class="fil1" d="M12026.22 42645.87c0,320.33 329.22,392.96 495.97,283.01l51.16 -44.61c19.96,-22.92 27.04,-41.35 49.04,-57.49l0 127.76 244.8 0 0 -883.59 -255.46 0 0 532.29c0,210.51 -329.98,219.2 -329.98,10.66l0 -542.95 -255.53 0 0 574.92z"/>
    <path class="fil1" d="M8555.7 42315.8c0,386.57 532.29,204.9 532.29,415.2 0,73.85 -204.73,91.37 -269.22,24.44 -79.49,-82.46 69.51,-77.67 -252.41,-77.67 -91.22,0 34.34,298.1 319.41,298.1l95.79 0c166.73,0 361.96,-107.13 361.96,-266.19l0 -53.22c0,-286.51 -542.95,-187.38 -542.95,-340.66 0,-112.45 274.86,-129.5 287.42,21.33l234.21 0c0,-347.2 -591.15,-366.46 -726.45,-141.01 -14.08,23.45 -40.05,87.26 -40.05,119.68z"/>
    <path class="fil1" d="M17082.87 42326.47c0,341.48 532.3,239.69 532.3,372.63 0,107.27 -81.7,95.78 -180.98,95.78 -114.9,0 -99.75,-117.11 -149.01,-117.11 -213.65,0 -262.07,-26.87 -195.83,110.56 142.46,295.34 781.34,225.91 781.34,-78.65l0 -53.22c0,-285.76 -542.95,-188.91 -542.95,-340.66 0,-105.83 274.33,-136.13 287.43,21.33l234.2 0c0,-392.27 -766.5,-377.42 -766.5,-10.66z"/>
    <path class="fil1" d="M26493.58 42507.45c0,125.86 46.59,260.85 108.95,327.55 246.46,263.22 753.4,146.95 753.4,-210.45l-234.2 0c-57.94,248.53 -361.97,187.23 -361.97,-63.88 0,-111.16 -6.7,-284.69 156.54,-312.55 115.44,-19.8 181.3,49.34 205.43,152.88l234.2 0c0,-200.62 -190.42,-351.3 -372.63,-351.3 -170.17,0 -256.36,14.85 -370.19,130.12 -66.39,67.31 -119.53,198.5 -119.53,327.63z"/>
    <path class="fil1" d="M18285.81 41889.96l0 180.99 -127.68 0c0,225.52 -29.55,191.63 127.68,191.63l0 468.42c0,289.7 425.84,259.7 425.84,191.64 0,-207.94 4.41,-149.08 -53.22,-149.08 -63.35,0 -117.1,-20.49 -117.1,-85.13l0 -425.85c208.47,0 170.32,39.74 170.32,-191.63l-170.32 0c0,-262.69 50.71,-212.9 -223.55,-212.9 -24.51,0 -31.97,7.39 -31.97,31.91z"/>
    <path class="fil1" d="M11249.06 41889.96l0 180.99 -127.76 0c0,225.52 -29.46,191.63 127.76,191.63l0 468.42c0,289.7 425.85,259.7 425.85,191.64 0,-207.94 4.41,-149.08 -53.22,-149.08 -63.35,0 -117.1,-20.49 -117.1,-85.13l0 -425.85c208.47,0 170.32,39.74 170.32,-191.63l-170.32 0c0,-262.69 50.71,-212.9 -223.55,-212.9 -24.51,0 -31.98,7.39 -31.98,31.91z"/>
    <path class="fil1" d="M20297.87 41889.96l0 180.99 -127.76 0c0,225.52 -29.46,191.63 127.76,191.63l0 468.42c0,289.7 425.85,259.7 425.85,191.64 0,-207.94 4.42,-149.08 -53.22,-149.08 -63.42,0 -117.1,-20.49 -117.1,-85.13l0 -425.85c208.39,0 170.32,39.74 170.32,-191.63l-170.32 0c0,-262.69 50.71,-212.9 -223.63,-212.9 -24.51,0 -31.9,7.39 -31.9,31.91z"/>
    <path class="fil1" d="M9758.7 41889.96l0 180.99 -127.76 0c0,225.52 -29.46,191.63 127.76,191.63l0 468.42c0,294.66 331.52,223.54 415.19,223.54l0 -191.65c-78.34,18.81 -159.73,9.07 -159.73,-74.46l0 -425.85c208.47,0 170.32,39.74 170.32,-191.63l-170.32 0c0,-262.69 50.78,-212.9 -223.55,-212.9 -24.52,0 -31.91,7.39 -31.91,31.91z"/>
    <path class="fil1" d="M13325.01 42070.95l-127.77 0 0 191.63 127.77 0 0 500.31c0,255.54 347.12,191.65 415.11,191.65l0 -191.65c0,0.08 -159.66,36.78 -159.66,-53.21l0 -447.1c195.76,0 159.66,38.45 159.66,-191.63l-159.66 0c0,-265.88 56.79,-212.9 -255.45,-212.9l0 212.9z"/>
    <path class="fil1" d="M27771.12 42070.95l-127.76 0 0 191.63 127.76 0 0 500.31c0,255.54 347.12,191.65 415.12,191.65l0 -191.65c0,0.08 -159.67,36.78 -159.67,-53.21l0 -447.1c195.76,0 159.67,38.45 159.67,-191.63l-159.67 0c0,-265.88 56.81,-212.9 -255.45,-212.9l0 212.9z"/>
    <path class="fil1" d="M42525.9 42070.95l-127.76 0 0 191.63 127.76 0 0 500.31c0,255.46 347.12,191.65 415.19,191.65l0 -191.65c-0.6,0.16 -159.66,36.63 -159.66,-53.21l0 -447.1c116.65,0 150.99,13.63 159.66,-24.05l0 -167.58 -159.66 0c0,-265.88 56.8,-212.9 -255.53,-212.9l0 212.9z"/>
    <polygon class="fil1" points="6682.14,42954.54 6937.59,42954.54 6937.59,41762.28 6682.14,41762.28 "/>
    <polygon class="fil1" points="24694.48,42954.54 24950,42954.54 24950,41762.28 24694.48,41762.28 "/>
    <polygon class="fil1" points="31773.85,42954.54 32029.3,42954.54 32029.3,41762.28 31773.85,41762.28 "/>
    <path class="fil1" d="M22245.98 41794.18l0 1160.36 255.52 0 0 -1192.26 -223.55 0c-24.52,0 -31.97,7.38 -31.97,31.9z"/>
    <path class="fil1" d="M29996 42209.37l0 -138.42 -244.79 0 0 883.59 255.44 0 0 -489.65c0,-112.23 54.6,-186.54 159.28,-192.25 43.63,-2.37 89.25,-2.37 117.49,11.26l0 -223.54c-42.64,-3.58 -108.65,-35.33 -207.1,37.68 -22.38,16.69 -30.83,28.41 -45.83,49.96l-34.49 61.37z"/>
    <path class="fil1" d="M41195.22 42209.37l0 -138.42 -244.87 0 0 883.59 255.52 0 0 -510.98c0,-191.4 214.49,-189.58 276.77,-159.66l0 -223.54c-39.9,-3.36 -116.8,-34.41 -209.15,35.71 -29.7,22.45 -43.25,46.67 -59.93,78.34l-18.34 34.96z"/>
    <polygon class="fil1" points="10546.45,42954.54 10801.97,42954.54 10801.97,42070.95 10546.45,42070.95 "/>
    <polygon class="fil1" points="41812.71,42954.54 42068.15,42954.54 42068.15,42070.95 41812.71,42070.95 "/>
    <path class="fil1" d="M41802.04 41847.4c0,166.29 276.77,173.59 276.77,0 0,-170.86 -276.77,-163.02 -276.77,0z"/>
    <path class="fil1" d="M10535.79 41836.74c0,187.53 266.18,187.53 266.18,0 0,-153.27 -266.18,-152.13 -266.18,0z"/>
   </g>
  </g>
 </g>
</svg>
